<mxfile host="Electron" modified="2024-06-25T18:11:26.378Z" agent="Mozilla/5.0 (Windows NT 10.0; Win64; x64) AppleWebKit/537.36 (KHTML, like Gecko) draw.io/24.5.3 Chrome/124.0.6367.207 Electron/30.0.6 Safari/537.36" etag="LvhXkDZn8fUp0r9NMLQc" version="24.5.3" type="device">
  <diagram name="Page-1" id="lYx4PWUJSPB87KkXov5I">
    <mxGraphModel dx="1434" dy="836" grid="1" gridSize="10" guides="1" tooltips="1" connect="1" arrows="1" fold="1" page="0" pageScale="1" pageWidth="850" pageHeight="1100" background="#ffffff" math="0" shadow="0">
      <root>
        <mxCell id="0" />
        <mxCell id="1" parent="0" />
        <mxCell id="ujFnphi9_LYjPP-DTqSb-30" value="" style="edgeStyle=orthogonalEdgeStyle;rounded=1;orthogonalLoop=1;jettySize=auto;html=1;" parent="1" target="ujFnphi9_LYjPP-DTqSb-28" edge="1">
          <mxGeometry relative="1" as="geometry">
            <mxPoint x="420.9200000000002" y="535" as="sourcePoint" />
          </mxGeometry>
        </mxCell>
        <mxCell id="ujFnphi9_LYjPP-DTqSb-35" value="" style="edgeStyle=orthogonalEdgeStyle;rounded=1;orthogonalLoop=1;jettySize=auto;html=1;" parent="1" source="ujFnphi9_LYjPP-DTqSb-28" target="ujFnphi9_LYjPP-DTqSb-31" edge="1">
          <mxGeometry relative="1" as="geometry" />
        </mxCell>
        <mxCell id="ujFnphi9_LYjPP-DTqSb-28" value="Persamaan gerak teredam (Runge-Kutta):&amp;nbsp;&lt;span style=&quot;background-color: initial;&quot;&gt;θ&#39;&#39;+(c/m) θ&#39;+(g/L)θ=0&lt;/span&gt;" style="whiteSpace=wrap;html=1;rounded=1;" parent="1" vertex="1">
          <mxGeometry x="325.74" y="570" width="190.25" height="65" as="geometry" />
        </mxCell>
        <mxCell id="ujFnphi9_LYjPP-DTqSb-38" value="" style="edgeStyle=orthogonalEdgeStyle;rounded=1;orthogonalLoop=1;jettySize=auto;html=1;" parent="1" source="ujFnphi9_LYjPP-DTqSb-31" edge="1">
          <mxGeometry relative="1" as="geometry">
            <mxPoint x="421" y="780" as="targetPoint" />
          </mxGeometry>
        </mxCell>
        <mxCell id="ujFnphi9_LYjPP-DTqSb-31" value="Hitung parameter:&lt;div&gt;omega0 = np.sqrt(g/L)&lt;/div&gt;&lt;div&gt;beta = c/(2*m*L)&lt;/div&gt;" style="whiteSpace=wrap;html=1;rounded=1;" parent="1" vertex="1">
          <mxGeometry x="325.74" y="680" width="190.25" height="65" as="geometry" />
        </mxCell>
        <mxCell id="7IN76M9cyVFmsyqThDl9-23" value="" style="edgeStyle=orthogonalEdgeStyle;rounded=1;orthogonalLoop=1;jettySize=auto;html=1;" edge="1" parent="1" source="ujFnphi9_LYjPP-DTqSb-39" target="7IN76M9cyVFmsyqThDl9-22">
          <mxGeometry relative="1" as="geometry" />
        </mxCell>
        <mxCell id="ujFnphi9_LYjPP-DTqSb-39" value="Regresi eksponensial:&lt;div&gt;&amp;nbsp;θ(t)=Ae^(-bt)&amp;nbsp; cos⁡(ωt+φ)&lt;/div&gt;" style="whiteSpace=wrap;html=1;rounded=1;" parent="1" vertex="1">
          <mxGeometry x="325.74" y="780" width="190.24" height="56.25" as="geometry" />
        </mxCell>
        <mxCell id="7IN76M9cyVFmsyqThDl9-62" value="" style="edgeStyle=orthogonalEdgeStyle;rounded=1;orthogonalLoop=1;jettySize=auto;html=1;" edge="1" parent="1">
          <mxGeometry relative="1" as="geometry">
            <mxPoint x="200" y="1220" as="sourcePoint" />
            <mxPoint x="98" y="1133" as="targetPoint" />
            <Array as="points">
              <mxPoint x="193" y="1220" />
              <mxPoint x="98" y="1220" />
            </Array>
          </mxGeometry>
        </mxCell>
        <mxCell id="ujFnphi9_LYjPP-DTqSb-60" value="File disimpan" style="rounded=1;whiteSpace=wrap;html=1;" parent="1" vertex="1">
          <mxGeometry x="195" y="1200" width="110" height="31.88" as="geometry" />
        </mxCell>
        <mxCell id="ujFnphi9_LYjPP-DTqSb-67" value="Tidak" style="text;strokeColor=none;align=center;fillColor=none;html=1;verticalAlign=middle;whiteSpace=wrap;rounded=1;" parent="1" vertex="1">
          <mxGeometry x="130" y="1107.03" width="60" height="30" as="geometry" />
        </mxCell>
        <mxCell id="ujFnphi9_LYjPP-DTqSb-110" value="" style="edgeStyle=orthogonalEdgeStyle;rounded=1;orthogonalLoop=1;jettySize=auto;html=1;" parent="1" source="ujFnphi9_LYjPP-DTqSb-92" target="ujFnphi9_LYjPP-DTqSb-109" edge="1">
          <mxGeometry relative="1" as="geometry" />
        </mxCell>
        <mxCell id="ujFnphi9_LYjPP-DTqSb-92" value="START" style="ellipse;whiteSpace=wrap;html=1;rounded=1;" parent="1" vertex="1">
          <mxGeometry x="363" y="20" width="120" height="80" as="geometry" />
        </mxCell>
        <mxCell id="ujFnphi9_LYjPP-DTqSb-94" value="END" style="ellipse;whiteSpace=wrap;html=1;rounded=1;" parent="1" vertex="1">
          <mxGeometry x="660" y="890" width="120" height="80" as="geometry" />
        </mxCell>
        <mxCell id="7IN76M9cyVFmsyqThDl9-35" value="" style="edgeStyle=orthogonalEdgeStyle;rounded=1;orthogonalLoop=1;jettySize=auto;html=1;" edge="1" parent="1" source="ujFnphi9_LYjPP-DTqSb-105" target="ujFnphi9_LYjPP-DTqSb-60">
          <mxGeometry relative="1" as="geometry" />
        </mxCell>
        <mxCell id="7IN76M9cyVFmsyqThDl9-38" value="" style="edgeStyle=orthogonalEdgeStyle;rounded=1;orthogonalLoop=1;jettySize=auto;html=1;exitX=0.376;exitY=0.166;exitDx=0;exitDy=0;exitPerimeter=0;" edge="1" parent="1" source="ujFnphi9_LYjPP-DTqSb-105">
          <mxGeometry relative="1" as="geometry">
            <mxPoint x="219.6700000000004" y="1100" as="sourcePoint" />
            <mxPoint x="357.87" y="254" as="targetPoint" />
            <Array as="points">
              <mxPoint x="236" y="1137" />
              <mxPoint x="98" y="1137" />
              <mxPoint x="98" y="254" />
            </Array>
          </mxGeometry>
        </mxCell>
        <mxCell id="ujFnphi9_LYjPP-DTqSb-105" value="Simpan data ke file?" style="rhombus;whiteSpace=wrap;html=1;fillColor=default;perimeterSpacing=0;rotation=0;autosize=0;rounded=1;" parent="1" vertex="1">
          <mxGeometry x="190.87" y="1107.0300000000002" width="120" height="60" as="geometry" />
        </mxCell>
        <mxCell id="ujFnphi9_LYjPP-DTqSb-107" value="Masukkan parameter: m, L, c,&amp;nbsp;θ0, θ_dot0,T, ∆t" style="shape=parallelogram;perimeter=parallelogramPerimeter;whiteSpace=wrap;html=1;fixedSize=1;rounded=1;" parent="1" vertex="1">
          <mxGeometry x="310.87" y="485" width="220" height="50" as="geometry" />
        </mxCell>
        <mxCell id="7IN76M9cyVFmsyqThDl9-2" value="" style="edgeStyle=orthogonalEdgeStyle;rounded=1;orthogonalLoop=1;jettySize=auto;html=1;" edge="1" parent="1" source="ujFnphi9_LYjPP-DTqSb-109" target="7IN76M9cyVFmsyqThDl9-1">
          <mxGeometry relative="1" as="geometry" />
        </mxCell>
        <mxCell id="ujFnphi9_LYjPP-DTqSb-109" value="Penjelasan Osilasi Teredam" style="shape=parallelogram;perimeter=parallelogramPerimeter;whiteSpace=wrap;html=1;fixedSize=1;rounded=1;" parent="1" vertex="1">
          <mxGeometry x="348" y="130" width="150" height="60" as="geometry" />
        </mxCell>
        <mxCell id="7IN76M9cyVFmsyqThDl9-34" value="" style="edgeStyle=orthogonalEdgeStyle;rounded=1;orthogonalLoop=1;jettySize=auto;html=1;" edge="1" parent="1" source="ujFnphi9_LYjPP-DTqSb-111" target="ujFnphi9_LYjPP-DTqSb-105">
          <mxGeometry relative="1" as="geometry" />
        </mxCell>
        <mxCell id="ujFnphi9_LYjPP-DTqSb-111" value="&amp;nbsp; &amp;nbsp;Output: grafik&amp;nbsp;θ(t), solusi persamaan, jenis redaman" style="shape=parallelogram;perimeter=parallelogramPerimeter;whiteSpace=wrap;html=1;fixedSize=1;size=10;rounded=1;" parent="1" vertex="1">
          <mxGeometry x="350.86" y="1110" width="140" height="54.06" as="geometry" />
        </mxCell>
        <mxCell id="ujFnphi9_LYjPP-DTqSb-112" value="Penjelasan Underdamping, Critical damping, Overdamping" style="shape=parallelogram;perimeter=parallelogramPerimeter;whiteSpace=wrap;html=1;fixedSize=1;size=6.380000000000109;rounded=1;" parent="1" vertex="1">
          <mxGeometry x="328.74" y="310" width="196.38" height="60" as="geometry" />
        </mxCell>
        <mxCell id="7IN76M9cyVFmsyqThDl9-3" value="" style="edgeStyle=orthogonalEdgeStyle;rounded=1;orthogonalLoop=1;jettySize=auto;html=1;" edge="1" parent="1" source="7IN76M9cyVFmsyqThDl9-1">
          <mxGeometry relative="1" as="geometry">
            <mxPoint x="423" y="312" as="targetPoint" />
          </mxGeometry>
        </mxCell>
        <mxCell id="7IN76M9cyVFmsyqThDl9-11" value="" style="edgeStyle=orthogonalEdgeStyle;rounded=1;orthogonalLoop=1;jettySize=auto;html=1;" edge="1" parent="1" target="ujFnphi9_LYjPP-DTqSb-107">
          <mxGeometry relative="1" as="geometry">
            <mxPoint x="488" y="250" as="sourcePoint" />
            <mxPoint x="660" y="510" as="targetPoint" />
            <Array as="points">
              <mxPoint x="720" y="250" />
              <mxPoint x="720" y="510" />
            </Array>
          </mxGeometry>
        </mxCell>
        <mxCell id="7IN76M9cyVFmsyqThDl9-1" value="Menu:&amp;nbsp;&lt;span style=&quot;background-color: initial;&quot;&gt;penjelasan jenis redaman, simulasi, keluar&amp;nbsp;&lt;/span&gt;" style="whiteSpace=wrap;html=1;rounded=1;" vertex="1" parent="1">
          <mxGeometry x="358" y="220" width="130" height="61.88" as="geometry" />
        </mxCell>
        <mxCell id="7IN76M9cyVFmsyqThDl9-14" value="Ya" style="text;strokeColor=none;align=center;fillColor=none;html=1;verticalAlign=middle;whiteSpace=wrap;rounded=1;" vertex="1" parent="1">
          <mxGeometry x="365" y="455" width="60" height="30" as="geometry" />
        </mxCell>
        <mxCell id="7IN76M9cyVFmsyqThDl9-46" value="" style="edgeStyle=orthogonalEdgeStyle;rounded=1;orthogonalLoop=1;jettySize=auto;html=1;exitX=0.5;exitY=0;exitDx=0;exitDy=0;" edge="1" parent="1" source="7IN76M9cyVFmsyqThDl9-79">
          <mxGeometry relative="1" as="geometry">
            <mxPoint x="592.5549999999998" y="403.75" as="sourcePoint" />
            <mxPoint x="488" y="260" as="targetPoint" />
            <Array as="points">
              <mxPoint x="594" y="260" />
            </Array>
          </mxGeometry>
        </mxCell>
        <mxCell id="7IN76M9cyVFmsyqThDl9-48" value="" style="edgeStyle=orthogonalEdgeStyle;rounded=1;orthogonalLoop=1;jettySize=auto;html=1;" edge="1" parent="1">
          <mxGeometry relative="1" as="geometry">
            <mxPoint x="592.5999999999999" y="446.25" as="sourcePoint" />
            <mxPoint x="660" y="930" as="targetPoint" />
            <Array as="points">
              <mxPoint x="593" y="930" />
            </Array>
          </mxGeometry>
        </mxCell>
        <mxCell id="7IN76M9cyVFmsyqThDl9-17" value="Tidak" style="text;strokeColor=none;align=center;fillColor=none;html=1;verticalAlign=middle;whiteSpace=wrap;rounded=1;" vertex="1" parent="1">
          <mxGeometry x="480.86" y="403.75" width="60" height="30" as="geometry" />
        </mxCell>
        <mxCell id="7IN76M9cyVFmsyqThDl9-20" value="Tidak" style="text;strokeColor=none;align=center;fillColor=none;html=1;verticalAlign=middle;whiteSpace=wrap;rounded=1;" vertex="1" parent="1">
          <mxGeometry x="586.87" y="380" width="60" height="30" as="geometry" />
        </mxCell>
        <mxCell id="7IN76M9cyVFmsyqThDl9-26" value="" style="edgeStyle=orthogonalEdgeStyle;rounded=1;orthogonalLoop=1;jettySize=auto;html=1;" edge="1" parent="1" source="7IN76M9cyVFmsyqThDl9-22" target="7IN76M9cyVFmsyqThDl9-25">
          <mxGeometry relative="1" as="geometry" />
        </mxCell>
        <mxCell id="7IN76M9cyVFmsyqThDl9-22" value="Identifikasi jenis redaman" style="rhombus;whiteSpace=wrap;html=1;rounded=1;" vertex="1" parent="1">
          <mxGeometry x="355.87" y="870" width="130" height="89.99" as="geometry" />
        </mxCell>
        <mxCell id="7IN76M9cyVFmsyqThDl9-28" value="" style="edgeStyle=orthogonalEdgeStyle;rounded=1;orthogonalLoop=1;jettySize=auto;html=1;" edge="1" parent="1" source="7IN76M9cyVFmsyqThDl9-25" target="7IN76M9cyVFmsyqThDl9-27">
          <mxGeometry relative="1" as="geometry" />
        </mxCell>
        <mxCell id="7IN76M9cyVFmsyqThDl9-30" value="" style="edgeStyle=orthogonalEdgeStyle;rounded=1;orthogonalLoop=1;jettySize=auto;html=1;" edge="1" parent="1" source="7IN76M9cyVFmsyqThDl9-25" target="7IN76M9cyVFmsyqThDl9-29">
          <mxGeometry relative="1" as="geometry" />
        </mxCell>
        <mxCell id="7IN76M9cyVFmsyqThDl9-33" value="" style="edgeStyle=orthogonalEdgeStyle;rounded=1;orthogonalLoop=1;jettySize=auto;html=1;" edge="1" parent="1" source="7IN76M9cyVFmsyqThDl9-25" target="ujFnphi9_LYjPP-DTqSb-111">
          <mxGeometry relative="1" as="geometry" />
        </mxCell>
        <mxCell id="7IN76M9cyVFmsyqThDl9-25" value="underdamping&lt;br&gt;beta &amp;lt; omega0" style="whiteSpace=wrap;html=1;rounded=1;" vertex="1" parent="1">
          <mxGeometry x="360.86" y="990" width="120" height="40" as="geometry" />
        </mxCell>
        <mxCell id="7IN76M9cyVFmsyqThDl9-27" value="critical damping&lt;div&gt;beta == omega0&lt;/div&gt;" style="whiteSpace=wrap;html=1;rounded=1;" vertex="1" parent="1">
          <mxGeometry x="530.87" y="990" width="120" height="40" as="geometry" />
        </mxCell>
        <mxCell id="7IN76M9cyVFmsyqThDl9-29" value="overdamping&lt;div&gt;beta &amp;gt; omega0&lt;/div&gt;" style="whiteSpace=wrap;html=1;rounded=1;" vertex="1" parent="1">
          <mxGeometry x="190" y="990" width="120" height="40" as="geometry" />
        </mxCell>
        <mxCell id="7IN76M9cyVFmsyqThDl9-31" value="else" style="text;strokeColor=none;align=center;fillColor=none;html=1;verticalAlign=middle;whiteSpace=wrap;rounded=1;" vertex="1" parent="1">
          <mxGeometry x="305" y="984" width="60" height="30" as="geometry" />
        </mxCell>
        <mxCell id="7IN76M9cyVFmsyqThDl9-32" value="else" style="text;strokeColor=none;align=center;fillColor=none;html=1;verticalAlign=middle;whiteSpace=wrap;rounded=1;" vertex="1" parent="1">
          <mxGeometry x="470.87" y="984" width="60" height="30" as="geometry" />
        </mxCell>
        <mxCell id="7IN76M9cyVFmsyqThDl9-40" value="Ya" style="text;strokeColor=none;align=center;fillColor=none;html=1;verticalAlign=middle;whiteSpace=wrap;rounded=1;" vertex="1" parent="1">
          <mxGeometry x="199" y="1170" width="60" height="30" as="geometry" />
        </mxCell>
        <mxCell id="7IN76M9cyVFmsyqThDl9-49" value="Ya" style="text;strokeColor=none;align=center;fillColor=none;html=1;verticalAlign=middle;whiteSpace=wrap;rounded=1;" vertex="1" parent="1">
          <mxGeometry x="580" y="459.75" width="60" height="30" as="geometry" />
        </mxCell>
        <mxCell id="7IN76M9cyVFmsyqThDl9-56" value="" style="edgeStyle=orthogonalEdgeStyle;rounded=1;orthogonalLoop=1;jettySize=auto;html=1;" edge="1" parent="1">
          <mxGeometry relative="1" as="geometry">
            <mxPoint x="720" y="510" as="sourcePoint" />
            <mxPoint x="720" y="890" as="targetPoint" />
          </mxGeometry>
        </mxCell>
        <mxCell id="7IN76M9cyVFmsyqThDl9-58" value="" style="endArrow=classic;html=1;rounded=1;entryX=0.5;entryY=0;entryDx=0;entryDy=0;" edge="1" parent="1" target="ujFnphi9_LYjPP-DTqSb-111">
          <mxGeometry width="50" height="50" relative="1" as="geometry">
            <mxPoint x="245.74" y="1030" as="sourcePoint" />
            <mxPoint x="325.74" y="1100" as="targetPoint" />
          </mxGeometry>
        </mxCell>
        <mxCell id="7IN76M9cyVFmsyqThDl9-59" value="" style="endArrow=classic;html=1;rounded=1;exitX=0.5;exitY=1;exitDx=0;exitDy=0;" edge="1" parent="1" source="7IN76M9cyVFmsyqThDl9-27">
          <mxGeometry width="50" height="50" relative="1" as="geometry">
            <mxPoint x="567.9499999999998" y="1032" as="sourcePoint" />
            <mxPoint x="420" y="1110" as="targetPoint" />
          </mxGeometry>
        </mxCell>
        <mxCell id="7IN76M9cyVFmsyqThDl9-71" value="" style="edgeStyle=orthogonalEdgeStyle;rounded=1;orthogonalLoop=1;jettySize=auto;html=1;" edge="1" parent="1" source="7IN76M9cyVFmsyqThDl9-67" target="ujFnphi9_LYjPP-DTqSb-107">
          <mxGeometry relative="1" as="geometry">
            <Array as="points">
              <mxPoint x="421" y="460" />
              <mxPoint x="421" y="460" />
            </Array>
          </mxGeometry>
        </mxCell>
        <mxCell id="7IN76M9cyVFmsyqThDl9-77" value="" style="endArrow=classic;html=1;rounded=1;" edge="1" parent="1" target="7IN76M9cyVFmsyqThDl9-67">
          <mxGeometry width="50" height="50" relative="1" as="geometry">
            <mxPoint x="420" y="370" as="sourcePoint" />
            <mxPoint x="420.36" y="420" as="targetPoint" />
          </mxGeometry>
        </mxCell>
        <mxCell id="7IN76M9cyVFmsyqThDl9-67" value="tanya: mulai simulasi?" style="rhombus;whiteSpace=wrap;html=1;rounded=1;" vertex="1" parent="1">
          <mxGeometry x="337.93" y="403.75" width="165.87" height="56" as="geometry" />
        </mxCell>
        <mxCell id="7IN76M9cyVFmsyqThDl9-79" value="keluar?" style="rhombus;whiteSpace=wrap;html=1;rounded=1;" vertex="1" parent="1">
          <mxGeometry x="528.87" y="407" width="130" height="50" as="geometry" />
        </mxCell>
        <mxCell id="7IN76M9cyVFmsyqThDl9-81" value="" style="endArrow=classic;html=1;rounded=1;exitX=1;exitY=0.5;exitDx=0;exitDy=0;" edge="1" parent="1" source="7IN76M9cyVFmsyqThDl9-67">
          <mxGeometry width="50" height="50" relative="1" as="geometry">
            <mxPoint x="430" y="550" as="sourcePoint" />
            <mxPoint x="530" y="433" as="targetPoint" />
          </mxGeometry>
        </mxCell>
      </root>
    </mxGraphModel>
  </diagram>
</mxfile>
